<svg xmlns="http://www.w3.org/2000/svg" viewBox="0 0 1200 800" fill="none">
  <rect width="1200" height="800" fill="#f0efed"/>

  <g transform="translate(600, 390)" stroke-linecap="round" stroke-linejoin="round">
    <rect x="-200" y="-80" width="65" height="55" rx="6" stroke="#a0a0a5" stroke-width="4.5" fill="#a0a0a5" fill-opacity="0.06" transform="rotate(-6 -168 -52)"/>
    <rect x="-195" y="5" width="65" height="55" rx="6" stroke="#a0a0a5" stroke-width="4.5" fill="#a0a0a5" fill-opacity="0.06" transform="rotate(4 -162 32)"/>
    <rect x="-120" y="-55" width="55" height="45" rx="5" stroke="#a0a0a5" stroke-width="3.5" fill="#a0a0a5" fill-opacity="0.04" transform="rotate(8 -92 -32)"/>
    <line x1="-40" y1="-10" x2="45" y2="-10" stroke="#a0785a" stroke-width="6"/>
    <path d="M35 -22 L50 -10 L35 2" stroke="#a0785a" stroke-width="6" fill="none"/>
    <g transform="translate(5, -36)">
      <line x1="0" y1="-10" x2="0" y2="10" stroke="#c4a080" stroke-width="3"/>
      <line x1="-10" y1="0" x2="10" y2="0" stroke="#c4a080" stroke-width="3"/>
      <line x1="-6" y1="-6" x2="6" y2="6" stroke="#c4a080" stroke-width="2"/>
      <line x1="6" y1="-6" x2="-6" y2="6" stroke="#c4a080" stroke-width="2"/>
    </g>
    <rect x="72" y="-85" width="140" height="150" rx="12" stroke="#a0785a" stroke-width="6" fill="#a0785a" fill-opacity="0.07"/>
    <line x1="72" y1="-35" x2="212" y2="-35" stroke="#c4a080" stroke-width="2" stroke-dasharray="6 4"/>
    <line x1="72" y1="15" x2="212" y2="15" stroke="#c4a080" stroke-width="2" stroke-dasharray="6 4"/>
    <line x1="92" y1="-62" x2="192" y2="-62" stroke="#a0785a" stroke-width="3"/>
    <line x1="92" y1="-48" x2="160" y2="-48" stroke="#c4a080" stroke-width="2.5"/>
    <line x1="92" y1="-14" x2="178" y2="-14" stroke="#c4a080" stroke-width="2.5"/>
    <line x1="92" y1="-1" x2="148" y2="-1" stroke="#c4a080" stroke-width="2.5"/>
    <line x1="92" y1="32" x2="172" y2="32" stroke="#c4a080" stroke-width="2.5"/>
    <line x1="92" y1="45" x2="155" y2="45" stroke="#c4a080" stroke-width="2.5"/>
    <path d="M168 32 L178 44 L196 22" stroke="#a0785a" stroke-width="3.5" fill="none"/>
  </g>
</svg>